<?xml version="1.0" encoding="UTF-8"?>
<svg version="1.1" viewBox="0 0 2000 489" xmlns="http://www.w3.org/2000/svg">
<g transform="translate(-1.2121 .76249)">
<svg width="2e3" height="489" data-background-color="#ffffff" viewBox="0 0 396 97" xmlns="http://www.w3.org/2000/svg" xmlns:xlink="http://www.w3.org/1999/xlink">
<g transform="translate(.24 -.15125)">
<svg width="395.52" height="97.302" viewBox="0 0 395.52 97.30249936239305">
<svg width="395.52" height="97.302" viewBox="0 0 582.4793473314473 143.29666343629975">
<g transform="translate(186.96 19.804)">
<svg width="395.52" height="103.69" viewBox="0 0 395.52 103.68788960658448">
<svg width="395.52" height="103.69" viewBox="0 0 395.52 103.68788960658448">
<svg width="395.52" height="64.217" viewBox="0 0 395.52 64.21660187514293">
<g>
<svg width="395.52" height="64.217" data-palette-color="#cccccc" viewBox="2.64 -31.61 251.3 40.81">
<path class="wordmark-text-0" d="m9.45-6.21q1.35 1.73 3.54 2.65 2.18 0.92 5.52 0.92 3.33 0 6.66-1.04v-9.54h-6.2q-0.69 0-1.1-0.46-0.4-0.46-0.4-0.98 0-0.63 0.35-1.03 0.34-0.4 1.15-0.4h8.44q1.67 0 1.67 1.61v11.49q0 1.61-1.49 1.84-5.29 1.61-9.14 1.61t-6.73-0.98q-2.87-0.97-4.82-2.93-4.26-4.25-4.26-12.18 0-6.61 3.91-11.09 4.02-4.83 11.61-4.89 4.94 0 8.85 1.61 0.81 0.46 0.81 1.18t-0.38 1.23q-0.37 0.52-1 0.52h-0.23q-0.12 0-0.64-0.14-0.51-0.15-1.49-0.35t-2.01-0.37q-2.3-0.35-3.68-0.35-5.86 0-8.91 3.91-1.38 1.78-1.98 4.17-0.6 2.38-0.6 4.91t0.6 4.95q0.6 2.41 1.95 4.13zm37.16-7.07q1.2 0 2.41 0.06v-1.84q0-4.48-5-4.48-2.24 0-3.28 0.4-1.83 0.69-2.64 1.18-0.8 0.49-1.26 0.49t-0.87-0.35q-0.4-0.34-0.4-0.92 0-0.46 0.52-0.92 2.7-2.58 7.99-2.58 6.09 0 7.81 4.08 0.58 1.44 0.58 3.33l-0.12 13.28q0 0.75-0.51 1.15-0.52 0.4-1.15 0.4-0.64 0-1.15-0.34-0.52-0.35-0.52-1.15v-2.07q-1.38 2.99-4.94 3.73-1.09 0.29-2.47 0.29t-2.73-0.4-2.39-1.27q-2.12-1.78-2.12-4.82 0-7.25 12.24-7.25zm2.41 4.54v-1.95q-0.92 0.12-2.13 0.12-1.2 0-2.47 0.02-1.26 0.03-2.41 0.29t-2.07 0.78q-1.95 1.03-2.07 3.39 0 1.84 1.5 2.87 1.14 0.92 3.27 0.98 2.59 0 4.48-1.67 1.73-1.61 1.9-4.83zm25.57 7.13v-2.01q-2.87 4.08-7.81 4.08-4.49 0-7.01-3.56-2.19-3.22-2.19-7.82 0-7.7 5.12-10.34 1.72-0.98 3.47-0.98 1.76 0 2.91 0.2 1.14 0.2 2.18 0.78 2.18 1.09 3.33 2.98v-11.38q0-0.86 0.58-1.23 0.57-0.37 1.26-0.37t1.21 0.37 0.52 1.23v28.05q0 0.81-0.58 1.21-0.57 0.4-1.03 0.4t-0.78-0.09q-0.32-0.08-0.6-0.37-0.58-0.4-0.58-1.15zm-7.12-0.63q7.01 0 7.01-9.02 0-5.81-3.51-7.59-1.32-0.69-3.16-0.69t-3.04 0.72q-1.21 0.72-2.02 1.92-1.43 2.24-1.43 5.69 0 5.12 2.41 7.53 1.38 1.44 3.74 1.44zm25.74-17.24q-6.44 0-6.44 8.56 0 4.02 2.02 6.32 1.72 2.01 4.48 2.07 2.81 0 4.77-2.13 2.07-2.24 2.07-6.14 0-5.87-3.68-7.94-1.27-0.74-3.22-0.74zm-0.92-2.76q5.63 0 7.93 4.31v-2.41q0.12-0.69 0.58-1.1 0.46-0.4 1.09-0.4t1.15 0.46 0.52 1.21v20.63q0 4.48-2.88 6.67-2.58 2.07-7.47 2.07-4.37 0-6.55-1.5-1.72-1.26-1.72-2.07 0-0.57 0.37-0.95 0.37-0.37 0.86-0.37t0.95 0.32q0.46 0.31 1.09 0.6t1.27 0.52q1.66 0.57 3.41 0.57 1.76 0 3.05-0.29 1.29-0.28 2.21-0.97 1.96-1.27 1.96-4.37v-5q-1.67 3.16-5.29 4.08-1.15 0.23-2.24 0.23-4.77 0-7.3-3.28-2.36-2.93-2.36-7.52 0-4.89 2.36-7.99 2.47-3.45 7.01-3.45zm37.01 10.69q0 1.21-1.38 1.32h-15.75q0.23 5.86 4.6 7.59 1.21 0.4 2.76 0.4 3.22 0 6.55-2.36 1.04-0.57 1.73 0.12 0.34 0.34 0.23 0.69 0 0.8-0.41 1.15-3.16 3.16-8.33 3.1-4.71 0-7.59-3.05-3.21-3.16-3.21-8.33 0-4.77 2.64-7.87 2.76-3.45 7.82-3.45 5.05 0 7.7 3.04 2.53 2.76 2.64 7.65zm-17.01-1.04h13.62q-0.17-3.1-2.01-5.11-1.73-1.84-4.94-1.84-2.76 0-4.72 2.07-1.78 2.07-1.95 4.88zm33.9 11.33q0 1.72-4.08 1.72-3.04 0-4.31-1.67-1.38-1.78-1.49-5.86v-12.07h-2.53q-0.69 0-1.09-0.43t-0.4-0.89 0.34-0.92q0.35-0.46 1.15-0.46h2.76l0.23-6.21q0.11-0.69 0.63-1.06t1.09-0.37q0.58 0 0.98 0.34 0.4 0.35 0.4 1.09v6.21h3.97q0.69 0 1.06 0.46t0.37 0.92q0 0.57-0.37 0.95-0.37 0.37-1.06 0.37h-3.97v10.17q0 4.26 0.29 5.15t0.92 1.23q0.63 0.35 1.55 0.35l2.24-0.17q0.63 0 0.98 0.4 0.34 0.4 0.34 0.75zm21.46-4.95q1.36 1.73 3.54 2.65t5.52 0.92q3.33 0 6.66-1.04v-9.54h-6.2q-0.69 0-1.1-0.46-0.4-0.46-0.4-0.98 0-0.63 0.35-1.03 0.34-0.4 1.15-0.4h8.44q1.67 0 1.67 1.61v11.49q0 1.61-1.49 1.84-5.29 1.61-9.14 1.61t-6.72-0.98q-2.88-0.97-4.83-2.93-4.26-4.25-4.26-12.18 0-6.61 3.91-11.09 4.03-4.83 11.61-4.89 4.94 0 8.85 1.61 0.81 0.46 0.81 1.18t-0.38 1.23q-0.37 0.52-1 0.52h-0.23q-0.12 0-0.63-0.14-0.52-0.15-1.5-0.35t-2.01-0.37q-2.3-0.35-3.68-0.35-5.86 0-8.91 3.91-1.38 1.78-1.98 4.17-0.6 2.38-0.6 4.91t0.6 4.95q0.6 2.41 1.95 4.13zm45.43-13.9v18.5q0 0.81-0.6 1.21t-1.03 0.4q-0.44 0-0.78-0.09-0.35-0.08-0.58-0.37-0.57-0.4-0.57-1.15v-2.01q-1.38 3.05-5.06 3.79-1.15 0.29-2.47 0.29t-2.76-0.46q-1.43-0.46-2.47-1.49-2.3-2.19-2.3-6.56v-12.06q0-0.81 0.52-1.27t1.21-0.46 1.2 0.46q0.52 0.46 0.52 1.27v12.35q0 3.1 1.27 4.31 1.26 1.21 3.79 1.21 4.25 0 5.86-3.45 0.63-1.21 0.69-2.76v-11.66q0-0.81 0.57-1.27 0.58-0.46 1.27-0.46t1.21 0.46q0.51 0.46 0.51 1.27zm10.17 0v1.95q1.38-4.08 6.04-4.08 0.86 0 1.29 0.49t0.43 1.03q0 0.55-0.43 1.04-0.43 0.48-1.58 0.48t-2.3 0.46-1.89 1.33q-1.56 1.89-1.56 5v10.8q0 0.81-0.57 1.21-0.58 0.4-1.04 0.4t-0.74-0.09q-0.29-0.08-0.58-0.37-0.51-0.34-0.51-1.15v-18.5q0-0.75 0.51-1.24 0.52-0.49 1.3-0.49 0.77 0 1.2 0.49t0.43 1.24zm30.69 0v18.5q0 0.81-0.6 1.21-0.61 0.4-1.04 0.4t-0.77-0.09q-0.35-0.08-0.58-0.37-0.57-0.4-0.57-1.15v-2.01q-1.38 3.05-5.06 3.79-1.15 0.29-2.47 0.29t-2.76-0.46-2.47-1.49q-2.3-2.19-2.3-6.56v-12.06q0-0.81 0.52-1.27 0.51-0.46 1.2-0.46t1.21 0.46 0.52 1.27v12.35q0 3.1 1.26 4.31 1.27 1.21 3.8 1.21 4.25 0 5.86-3.45 0.63-1.21 0.69-2.76v-11.66q0-0.81 0.57-1.27 0.58-0.46 1.27-0.46t1.2 0.46q0.52 0.46 0.52 1.27z" fill="#fff" data-fill-palette-color="primary"/>
</svg>
</g>
</svg>
<g transform="translate(0 79.377)">
<svg width="232.21" height="24.311" viewBox="0 0 232.209792 24.31128922716531">
<g>
<svg width="232.21" height="24.311" data-palette-color="#cccccc" viewBox="2.15 -38.05 486.61 50.949999999999996">
<path class="slogan-text-1" d="m37.7 6.6h-5.9l-6.95-6.95q-2.55 0.7-5.2 0.7-4.85 0-8.85-2.28-4-2.27-6.32-6.35-2.33-4.07-2.33-9.17t2.33-9.18q2.32-4.07 6.32-6.35 4-2.27 8.85-2.27 4.9 0 8.9 2.27 4 2.28 6.3 6.33t2.3 9.2q0 5-2.2 9t-6.05 6.3l8.8 8.75zm-30.9-24.05q0 4.15 1.67 7.3 1.68 3.15 4.61 4.85 2.92 1.7 6.57 1.7t6.58-1.7q2.92-1.7 4.6-4.85 1.67-3.15 1.67-7.3 0-4.2-1.67-7.33-1.68-3.12-4.58-4.82t-6.6-1.7-6.6 1.7-4.58 4.82q-1.67 3.13-1.67 7.33zm56.2-9.95h4.55v27.4h-4.55v-4.05q-1.3 2.1-3.63 3.27-2.32 1.18-5.12 1.18-3.2 0-5.75-1.33-2.55-1.32-4.03-3.97-1.47-2.65-1.47-6.45v-16.05h4.5v15.45q0 4.05 2.05 6.22 2.05 2.18 5.6 2.18 3.65 0 5.75-2.25t2.1-6.55v-15.05zm10.55 13.6q0-4.2 1.7-7.38 1.7-3.17 4.67-4.92 2.98-1.75 6.63-1.75 3.6 0 6.25 1.55t3.95 3.9v-5h4.6v27.4h-4.6v-5.1q-1.35 2.4-4.03 3.97-2.67 1.58-6.22 1.58-3.65 0-6.6-1.8t-4.65-5.05-1.7-7.4zm23.2 0.05q0-3.1-1.25-5.4t-3.38-3.53q-2.12-1.22-4.67-1.22t-4.65 1.2-3.35 3.5-1.25 5.4q0 3.15 1.25 5.47 1.25 2.33 3.35 3.55 2.1 1.23 4.65 1.23t4.67-1.23q2.13-1.22 3.38-3.55 1.25-2.32 1.25-5.42zm12.29-23.25h4.55v37h-4.55v-37zm14.65 5.15q-1.3 0-2.2-0.9t-0.9-2.2 0.9-2.2 2.2-0.9q1.25 0 2.13 0.9 0.87 0.9 0.87 2.2t-0.87 2.2q-0.88 0.9-2.13 0.9zm-2.35 4.45h4.55v27.4h-4.55v-27.4zm25 3.75h-7.15v16.15q0 2 0.85 2.83 0.85 0.82 2.95 0.82h3.35v3.85h-4.1q-3.8 0-5.7-1.75t-1.9-5.75v-16.15h-3.55v-3.75h3.55v-6.9h4.55v6.9h7.15v3.75zm24.4-3.75h4.7l-16.5 40.3h-4.7l5.4-13.2-11.05-27.1h5.05l8.6 22.2 8.5-22.2zm54.44 2.65h-5.45q-1.45-3.05-4.2-4.73-2.75-1.67-6.4-1.67t-6.57 1.67q-2.93 1.68-4.6 4.8-1.68 3.13-1.68 7.23t1.68 7.2q1.67 3.1 4.6 4.77 2.92 1.68 6.57 1.68 5.1 0 8.4-3.05t3.85-8.25h-13.9v-3.7h18.75v3.5q-0.4 4.3-2.7 7.87-2.3 3.58-6.05 5.65-3.75 2.08-8.35 2.08-4.85 0-8.85-2.28-4-2.27-6.32-6.32-2.33-4.05-2.33-9.15t2.33-9.18q2.32-4.07 6.32-6.35 4-2.27 8.85-2.27 5.55 0 9.83 2.75 4.27 2.75 6.22 7.75zm26.8-2.65h4.55v27.4h-4.55v-4.05q-1.3 2.1-3.63 3.27-2.32 1.18-5.12 1.18-3.2 0-5.75-1.33-2.55-1.32-4.03-3.97-1.47-2.65-1.47-6.45v-16.05h4.5v15.45q0 4.05 2.05 6.22 2.05 2.18 5.6 2.18 3.65 0 5.75-2.25t2.1-6.55v-15.05zm10.55 13.6q0-4.2 1.7-7.38 1.7-3.17 4.67-4.92 2.98-1.75 6.63-1.75 3.6 0 6.25 1.55t3.95 3.9v-5h4.6v27.4h-4.6v-5.1q-1.35 2.4-4.03 3.97-2.67 1.58-6.22 1.58-3.65 0-6.6-1.8t-4.65-5.05-1.7-7.4zm23.2 0.05q0-3.1-1.25-5.4t-3.38-3.53q-2.12-1.22-4.67-1.22t-4.65 1.2-3.35 3.5-1.25 5.4q0 3.15 1.25 5.47 1.25 2.33 3.35 3.55 2.1 1.23 4.65 1.23t4.67-1.23q2.13-1.22 3.38-3.55 1.25-2.32 1.25-5.42zm16.84-9.2q1.2-2.35 3.43-3.65 2.22-1.3 5.42-1.3v4.7h-1.2q-7.65 0-7.65 8.3v14.9h-4.55v-27.4h4.55v4.45zm12.4 9.15q0-4.2 1.7-7.38 1.7-3.17 4.68-4.92 2.97-1.75 6.62-1.75 3.6 0 6.25 1.55t3.95 3.9v-5h4.6v27.4h-4.6v-5.1q-1.35 2.4-4.02 3.97-2.68 1.58-6.23 1.58-3.65 0-6.6-1.8t-4.65-5.05-1.7-7.4zm23.2 0.05q0-3.1-1.25-5.4t-3.37-3.53q-2.13-1.22-4.68-1.22t-4.65 1.2-3.35 3.5-1.25 5.4q0 3.15 1.25 5.47 1.25 2.33 3.35 3.55 2.1 1.23 4.65 1.23t4.68-1.23q2.12-1.22 3.37-3.55 1.25-2.32 1.25-5.42zm25.65-14.15q5 0 8.1 3.02 3.1 3.03 3.1 8.73v16.15h-4.5v-15.5q0-4.1-2.05-6.28-2.05-2.17-5.6-2.17-3.6 0-5.73 2.25-2.12 2.25-2.12 6.55v15.15h-4.55v-27.4h4.55v3.9q1.35-2.1 3.67-3.25 2.33-1.15 5.13-1.15zm31.35 4.25h-7.15v16.15q0 2 0.85 2.83 0.85 0.82 2.95 0.82h3.35v3.85h-4.1q-3.8 0-5.7-1.75t-1.9-5.75v-16.15h-3.55v-3.75h3.55v-6.9h4.55v6.9h7.15v3.75zm30.49 8.9q0 1.3-0.15 2.75h-21.9q0.25 4.05 2.78 6.32 2.52 2.28 6.12 2.28 2.95 0 4.93-1.38 1.97-1.37 2.77-3.67h4.9q-1.1 3.95-4.4 6.43-3.3 2.47-8.2 2.47-3.9 0-6.97-1.75-3.08-1.75-4.83-4.98-1.75-3.22-1.75-7.47t1.7-7.45 4.78-4.93q3.07-1.72 7.07-1.72 3.9 0 6.9 1.7t4.63 4.67q1.62 2.98 1.62 6.73zm-4.7-0.95q0-2.6-1.15-4.48-1.15-1.87-3.12-2.85-1.98-0.97-4.38-0.97-3.45 0-5.87 2.2-2.43 2.2-2.78 6.1h17.3zm35.7 0.95q0 1.3-0.15 2.75h-21.9q0.25 4.05 2.78 6.32 2.52 2.28 6.12 2.28 2.95 0 4.93-1.38 1.97-1.37 2.77-3.67h4.9q-1.1 3.95-4.4 6.43-3.3 2.47-8.2 2.47-3.9 0-6.97-1.75-3.08-1.75-4.83-4.98-1.75-3.22-1.75-7.47t1.7-7.45 4.78-4.93q3.07-1.72 7.07-1.72 3.9 0 6.9 1.7t4.63 4.67q1.62 2.98 1.62 6.73zm-4.7-0.95q0-2.6-1.15-4.48-1.15-1.87-3.12-2.85-1.98-0.97-4.38-0.97-3.45 0-5.87 2.2-2.43 2.2-2.78 6.1h17.3zm9 1.9q0-4.2 1.7-7.38 1.7-3.17 4.67-4.92 2.98-1.75 6.68-1.75 3.2 0 5.95 1.47 2.75 1.48 4.2 3.88v-14.5h4.6v37h-4.6v-5.15q-1.35 2.45-4 4.02-2.65 1.58-6.2 1.58-3.65 0-6.63-1.8-2.97-1.8-4.67-5.05t-1.7-7.4zm23.2 0.05q0-3.1-1.25-5.4t-3.38-3.53q-2.12-1.22-4.67-1.22t-4.65 1.2-3.35 3.5-1.25 5.4q0 3.15 1.25 5.47 1.25 2.33 3.35 3.55 2.1 1.23 4.65 1.23t4.67-1.23q2.13-1.22 3.38-3.55 1.25-2.32 1.25-5.42z" fill="#fff" data-fill-palette-color="secondary"/>
</svg>
</g>
</svg>
</g>
</svg>
</svg>
</g>
<svg width="171.8" height="143.3" viewBox="0 0 171.79934882717114 143.29666343629975">
<svg class="icon-icon-0" width="171.8" height="143.3" enable-background="new 0 0 100 100" data-fill-palette-color="accent" version="1.1" viewBox="1.0469999999999997 9.17 97.90512973221482 81.662" xml:space="preserve" xmlns="http://www.w3.org/2000/svg" xmlns:xlink="http://www.w3.org/1999/xlink"><g fill="#fff" data-fill-palette-color="accent"><path d="M1.047 66.597v5.466c0 1.574 1.276 2.85 2.849 2.85h88.896c1.573 0 2.848-1.275 2.848-2.85v-5.466H1.047z" data-fill-palette-color="accent"/><path d="M92.793 9.17H3.896c-1.573 0-2.849 1.276-2.849 2.849v53.757h94.593V12.019C95.641 10.446 94.366 9.17 92.793 9.17zM91.707 62.311H4.825V12.808h86.882V62.311z" data-fill-palette-color="accent"/><path d="m61.269 83.279c-1.734-1.275-1.917-3.19-1.917-3.19l-0.65-4.154h-20.714l-0.652 4.154s-0.181 1.915-1.914 3.19c-1.732 1.276-3.099 2.37-1.732 2.553 1.317 0.177 13.74 0.015 14.656 1e-3 0.917 0.014 13.338 0.176 14.655-1e-3 1.366-0.183-1e-3 -1.276-1.732-2.553z" data-fill-palette-color="accent"/><polygon points="74.279 90.061 21.101 90.061 23.95 86.505 71.43 86.505" data-fill-palette-color="accent"/><rect x="21.101" y="90.061" width="53.179" height=".77" data-fill-palette-color="accent"/><path d="m90.211 85.702s-3.898-0.043-6.76 0.795c0.678-0.063 1.426-7e-3 2.211 0.265 0.777 0.271 1.533 0.71 2.331 1.173 1.443 0.842 3.125 1.816 5.617 2.197 3.719-0.049 5.309-0.408 5.341-1.077 0.046-0.913-1.287-3.214-8.74-3.353zm-4.666 1.397c-1.787-0.62-3.411-0.021-4.321 0.469-0.177 0.149-0.329 0.309-0.446 0.482 0 0 0.552 1.769 7.868 2.011 1.217 0.04 2.31 0.065 3.292 0.073-1.698-0.484-2.984-1.228-4.125-1.89-0.782-0.455-1.521-0.887-2.268-1.145z" data-fill-palette-color="accent"/><path d="m94.127 90.434c-1e-3 0-1e-3 1e-3 -2e-3 1e-3 -0.086 2e-3 -0.201 4e-3 -0.332 6e-3 -0.061 0-0.12 2e-3 -0.183 3e-3 -2e-3 -1e-3 -5e-3 -1e-3 -8e-3 -1e-3 -0.515 3e-3 -1.201 1e-3 -1.679 0 6e-3 1e-3 0.01 1e-3 0.014 3e-3 -0.157-2e-3 -0.321-3e-3 -0.483-5e-3 -0.055-1e-3 -0.086-2e-3 -0.086-2e-3h-2e-3c-0.831-0.012-1.732-0.032-2.721-0.065-2.743-0.092-4.537-0.398-5.705-0.744v0.432l8.834 0.77s3.772-0.105 4.923-0.385v-0.163c-0.685 0.076-1.536 0.126-2.57 0.15z" data-fill-palette-color="accent"/></g></svg>
</svg>
</svg>
</svg>
<rect width="395.52" height="97.302" fill="none" visibility="hidden"/>
</g>
</svg>
</g>
</svg>
